REM GENRE Pop/Rock
REM DATE 2015
REM DISCID 960BAC0B
REM COMMENT "ExactAudioCopy v1.5"
PERFORMER "Haujobb"
TITLE "Blendwerk"
REM COMPOSER ""
FILE "01 - Haujobb - Completion.wav" WAVE
  TRACK 01 AUDIO
    TITLE "Completion"
    PERFORMER "Haujobb"
    REM COMPOSER "Daniel Myer"
    ISRC DEOT31500142
    INDEX 01 00:00:00
FILE "02 - Zinovia,Haujobb - Dark Heart 5.wav" WAVE
  TRACK 02 AUDIO
    TITLE "Dark Heart 5"
    PERFORMER "Zinovia/Haujobb"
    REM COMPOSER "Daniel Myer"
    ISRC DEOT31500143
    INDEX 01 00:00:00
FILE "03 - Haujobb - Destroy.wav" WAVE
  TRACK 03 AUDIO
    TITLE "Destroy"
    PERFORMER "Haujobb"
    REM COMPOSER "Daniel Myer"
    ISRC DEOT31500144
    INDEX 01 00:00:00
FILE "04 - Haujobb - Failures.wav" WAVE
  TRACK 04 AUDIO
    TITLE "Failures"
    PERFORMER "Haujobb"
    REM COMPOSER "Daniel Myer"
    ISRC DEOT31500145
    INDEX 01 00:00:00
FILE "05 - Haujobb - Information Space.wav" WAVE
  TRACK 05 AUDIO
    TITLE "Information Space"
    PERFORMER "Haujobb"
    REM COMPOSER "Daniel Myer"
    ISRC DEOT31500146
    INDEX 01 00:00:00
FILE "06 - Haujobb - Input Error.wav" WAVE
  TRACK 06 AUDIO
    TITLE "Input Error"
    PERFORMER "Haujobb"
    REM COMPOSER "Daniel Myer"
    ISRC DEOT31500147
    INDEX 01 00:00:00
FILE "07 - Haujobb - Leaving.wav" WAVE
  TRACK 07 AUDIO
    TITLE "Leaving"
    PERFORMER "Haujobb"
    REM COMPOSER "Daniel Myer"
    ISRC DEOT31500148
    INDEX 01 00:00:00
FILE "08 - Haujobb - Little Miss Danger.wav" WAVE
  TRACK 08 AUDIO
    TITLE "Little Miss Danger"
    PERFORMER "Haujobb"
    REM COMPOSER "Daniel Myer"
    ISRC DEOT31500149
    INDEX 01 00:00:00
FILE "09 - Haujobb - Meltdown.wav" WAVE
  TRACK 09 AUDIO
    TITLE "Meltdown"
    PERFORMER "Haujobb"
    REM COMPOSER "Daniel Myer"
    ISRC DEOT31500150
    INDEX 01 00:00:00
FILE "10 - Haujobb - Perfection.wav" WAVE
  TRACK 10 AUDIO
    TITLE "Perfection"
    PERFORMER "Haujobb"
    REM COMPOSER "Daniel Myer"
    ISRC DEOT31500151
    INDEX 01 00:00:00
FILE "11 - Haujobb - Produkt.wav" WAVE
  TRACK 11 AUDIO
    TITLE "Produkt"
    PERFORMER "Haujobb"
    REM COMPOSER "Daniel Myer"
    ISRC DEOT31500152
    INDEX 01 00:00:00
